<svg xmlns="http://www.w3.org/2000/svg" viewBox="0 0 160.29 261.07"><defs><style>.cls-1{fill:#994f4f}.cls-2{fill:#375a64}.cls-4{fill:#1a2e35}.cls-8{fill:#fff}</style></defs><g id="Layer_2" data-name="Layer 2"><g id="character_2" data-name="character 2"><path class="cls-1" d="M99.89 101.14l-4.84 15.17a17.51 17.51 0 01-13.61 12.19l-32.39 6.08-8.81-.28 8.81-10.9 24.35-8.31a6.51 6.51 0 004.91-4.66L88 89.35l12.28 7.52z"/><path class="cls-2" d="M147.65 86.28c-.46 2.35-7.31 19.45-7.31 19.45s-26.66-9-26.3-10.36c.28-1.08 5.4-18.2 11.54-27.68a13.89 13.89 0 0110.68-6.43c1.2-.07 3.8 1.17 4.51 1.57 5.62 3.17 10.39 5.3 6.88 23.45z"/><path d="M110 53.15c-12 1.35-14 9.54-19.62 17.61l-8.13 15 15 9.16-.51 23-7.13 21.95 56.25-5.29-5.19-18.84 7.5-29.58c.57-4 2.12-11.52 1.07-15.49-3.28-12.39-16.17-16-25-18.32-1.82-.47-10.65-.44-12.17-.07" fill="#5e72e4"/><path class="cls-4" d="M147.16 86a1.72 1.72 0 00-.12.32c-.08.23-.18.55-.32 1l-1.15 3.63c-1 3.17-2.39 7.68-4.09 13.15l.18-.09-25-9.25-.63-.26.11.21A110.07 110.07 0 01122 78.24a46.59 46.59 0 017.44-12.07 16.57 16.57 0 014.21-3.41 8.89 8.89 0 013.89-1.15 7.3 7.3 0 01.8 0l.69.07c.22 0 .42 0 .6.08l.48.12.65.17a.82.82 0 00.23 0l-.21-.08-.65-.2-.48-.15c-.18 0-.39-.06-.6-.09l-.71-.09a5.54 5.54 0 00-.81 0 8.72 8.72 0 00-4 1.11 16.5 16.5 0 00-4.3 3.41 46.38 46.38 0 00-7.56 12.1 109.2 109.2 0 00-5.91 16.51v.15l.15.06c.19.09.41.17.62.26 9.38 3.51 18.08 6.63 25.07 9.19h.15v-.15c1.66-5.48 3-10 4-13.18.46-1.56.82-2.79 1.08-3.65.11-.41.2-.73.27-1a1.59 1.59 0 00.06-.25z"/><path class="cls-4" d="M117.07 91.3c0 .09 5.75 2.09 12.91 4.46s13 4.22 13 4.13-5.75-2.09-12.92-4.47-12.96-4.21-12.99-4.12zM114.03 139.25l2.16-52.01H97.84l-5.16 54.8 21.35-2.79z"/><path d="M140.25 103.67a115.68 115.68 0 01-4.15 14.44 31.35 31.35 0 01-4.55 8.33 21.06 21.06 0 01-10.9 6.65 34.5 34.5 0 01-12.89.64l21.42-12.1 5.69-19.8z" opacity=".3"/><path class="cls-1" d="M137.8 102.57l-5.28 17.27a17.6 17.6 0 01-13.62 12.35l-32.38 6.16-8.81-.29 8.81-11 24.34-8.41a6.56 6.56 0 004.92-4.72l4.5-17.4z"/><path class="cls-4" d="M96.7 117.34a9.24 9.24 0 00.15-1.64c.06-1.14.13-2.65.22-4.46.16-3.77.35-9 .52-14.74s.3-11 .37-14.74c0-1.81 0-3.32.05-4.47a9.63 9.63 0 00-.01-1.64 10.43 10.43 0 00-.15 1.64c0 1.14-.13 2.64-.22 4.46-.16 3.77-.35 9-.52 14.74s-.3 11-.37 14.74v4.47a9.63 9.63 0 00-.04 1.64z"/><path class="cls-4" d="M84.44 81.77a53.56 53.56 0 006.32 4 53.21 53.21 0 006.58 3.57 54.33 54.33 0 00-6.32-4 53.89 53.89 0 00-6.58-3.57z"/><path d="M10.34 251.89l-.2-9.9 19-6.74.76 13.75-1.07.52C24.07 251.8 4.44 260.66.78 261c-4.08.37 9.56-9.11 9.56-9.11z" fill="#ff4f5b"/><path class="cls-8" d="M3.78 256.78S-.87 260.44.14 261s21.18-7.61 29.76-12l-.19-.38-23.44 9.8s-1.44-2.01-2.49-1.64z" opacity=".4"/><path class="cls-4" d="M30 248.52s-.09.06-.29.16l-.85.41-3.15 1.44c-2.67 1.2-6.39 2.81-10.53 4.5s-7.92 3.14-10.67 4.15l-3.26 1.17-.9.31-.31.09a1.09 1.09 0 01.3-.14l.88-.34L4.43 259c2.74-1 6.51-2.52 10.65-4.21s7.85-3.27 10.54-4.44l3.19-1.35.86-.37z"/><path class="cls-4" d="M6.38 258.7a7.08 7.08 0 00-1.22-1.29 8.38 8.38 0 00-1.59-.79 2.64 2.64 0 011.73.6 2.55 2.55 0 011.08 1.48zM10.52 253.93s-.41-.15-.83-.45-.74-.59-.7-.64.41.15.83.45.74.59.7.64zM11.64 252.59c0 .06-.37 0-.79-.16s-.73-.32-.71-.38.37 0 .79.16.73.32.71.38zM11.87 250.56c0 .06-.37.28-.88.49a2.27 2.27 0 01-1 .28c0-.06.37-.28.87-.49a2.13 2.13 0 011.01-.28zM11.7 249.25c0 .05-.33.44-.91.72a1.94 1.94 0 01-1.12.29 6.79 6.79 0 011-.49 6 6 0 011.03-.52z"/><path class="cls-4" d="M9.29 252.63a3.25 3.25 0 01-1.14.46 7.12 7.12 0 01-1.31.22 3.65 3.65 0 01-.81 0 .63.63 0 01-.42-.24.47.47 0 010-.52 2.25 2.25 0 012.83-.44 2.14 2.14 0 01.67.61c.13.17.17.28.16.29a3.79 3.79 0 00-.91-.76 2.25 2.25 0 00-1.25-.25 1.85 1.85 0 00-1.31.64c-.13.21 0 .39.27.43a3.76 3.76 0 00.75 0 8.77 8.77 0 001.3-.17c.73-.13 1.16-.3 1.17-.27z"/><path class="cls-4" d="M9 252.81a1.23 1.23 0 01-.45-.74 2.12 2.12 0 010-.95 1.24 1.24 0 01.71-1 .49.49 0 01.57.38 1.27 1.27 0 010 .58 3.4 3.4 0 01-.26.91 1.7 1.7 0 01-.46.72s.14-.29.31-.78a4.43 4.43 0 00.2-.88c.06-.3 0-.77-.32-.71s-.47.49-.55.79a2 2 0 000 .87 5.23 5.23 0 00.25.81zM27.66 243.84s-.53.15-1.29.57a6 6 0 00-3.13 5.59c0 .87.22 1.39.18 1.4a1.09 1.09 0 01-.14-.35 4.67 4.67 0 01-.2-1 5.92 5.92 0 01.72-3.37 5.86 5.86 0 012.49-2.36 4.67 4.67 0 011-.37c.23-.11.36-.13.37-.11zM22.83 237.23a32.93 32.93 0 011.63 3.57 34.06 34.06 0 011.42 3.65 32.18 32.18 0 01-1.63-3.56 33.72 33.72 0 01-1.42-3.66zM20.51 250.68A10.69 10.69 0 0118 252a10.84 10.84 0 01-2.67.85c0-.07 1.16-.47 2.58-1.06s2.57-1.17 2.6-1.11z"/><path class="cls-4" d="M24 249.26c.06 0 0 .29 0 .6v.59c0 .02-.21-.24-.19-.6s.11-.61.19-.59zM24.62 247.11c.06 0 0 .25-.09.51s-.24.45-.3.43 0-.26.09-.52.24-.45.3-.42zM26.18 245.61c0 .06-.22.15-.44.35s-.36.41-.42.39 0-.32.26-.56.6-.25.6-.18zM27.37 244.72s0 .17-.15.29-.26.17-.3.13 0-.18.14-.3.26-.17.31-.12z"/><path class="cls-4" d="M86.51 140.79l-55.72 1a17.91 17.91 0 00-17.43 15.71l-11 89.8h30.22l9.24-77.56h43.94z"/><path class="cls-2" d="M2.69 241.63c0 .15 6.63.31 14.81.36s14.66-.16 14.81-.17c.94-.09-6.63-.3-14.81-.35s-14.81.02-14.81.16z"/><path class="cls-4" d="M138.82 169.78c22.24-7.36 7-36.79 7-36.79l-97.22 9.15a14.07 14.07 0 00-14.16 14.06 14.07 14.07 0 0014.06 14.07l90.32-.49"/><path class="cls-2" d="M109.1 138.57l-.27-2.1-24.89-.97-12.21-30.8-46.51 3.16 15.69 34.18 68.19-3.47z"/><path class="cls-8" d="M53.43 124.68a2.44 2.44 0 10.75-3.37 2.44 2.44 0 00-.75 3.37z"/><path class="cls-2" d="M117.16 138a1.16 1.16 0 00-.28 0h-.81l-3.14.12-11.52.54-38 2c-1.86.09-3.69.24-5.49.26s-3.6.1-5.35.2-3.48.23-5.16.4a19 19 0 00-4.89.95 12.06 12.06 0 00-4.08 2.47 10.42 10.42 0 00-2.44 3.7 17.5 17.5 0 00-1 4.05 27.08 27.08 0 00-.27 3.84A15.59 15.59 0 0036 163a10.7 10.7 0 003 3.93 8.31 8.31 0 002.77 1.48c.69.21.7.14 0-.09a8.87 8.87 0 01-2.68-1.54 10.61 10.61 0 01-2.91-3.9 15.36 15.36 0 01-1.2-6.34 27.83 27.83 0 01.3-3.78 17.6 17.6 0 011-4 9.88 9.88 0 012.39-3.59 11.57 11.57 0 013.92-2.36 19.08 19.08 0 014.79-.9 131.525 131.525 0 0110.46-.58c1.8-.03 3.65-.17 5.5-.25l38-2.13 11.51-.7 3.13-.21.82-.07z"/><path class="cls-4" d="M113.42 87.24s2.48-24 23.91-30.24a12.91 12.91 0 014.3 2.67s-20.21-.83-25.44 27.57zM98 88.45s-4.91-22.2 13-35.57a13 13 0 015 1s-20.26 6.26-15.18 34.69zM134.72 9.88A7.46 7.46 0 01148 8.26a22.85 22.85 0 012 4.87 7.45 7.45 0 003 4.16c1.81 1 4.19.64 5.84 1.87a4.32 4.32 0 01.34 6.09 5.8 5.8 0 01-6.33 1.21 13.28 13.28 0 01.87 4.19 4.42 4.42 0 01-1.84 3.7 4.26 4.26 0 01-4.15-.08 10.1 10.1 0 01-3.15-3 10.48 10.48 0 01-1 2.9 3.55 3.55 0 01-2.4 1.78 3.47 3.47 0 01-3.23-1.59 7.89 7.89 0 01-1.16-3.56 25.78 25.78 0 01.6-9.3c.47-1.95 1.15-3.94.78-5.9s-2.32-3.82-4.23-3.23"/><path class="cls-2" d="M159.81 23.29s-.11.07-.33.16a8.2 8.2 0 01-1 .28 9.69 9.69 0 01-8.75-2.51 9.88 9.88 0 01-2-2.67 13.44 13.44 0 01-1.12-3.4 18.44 18.44 0 00-.93-3.33 5.74 5.74 0 00-1.9-2.46 6.21 6.21 0 00-5.1-1 7.47 7.47 0 00-3.19 1.72c-.65.59-.93 1-1 1s0-.12.17-.32a6.3 6.3 0 01.66-.79A7.16 7.16 0 01138.61 8a6.54 6.54 0 015.47 1 6.24 6.24 0 012.09 2.64 18.74 18.74 0 011 3.43 13.56 13.56 0 001.06 3.28 9.86 9.86 0 001.88 2.56 9.63 9.63 0 004.72 2.54 10.28 10.28 0 003.66.11c.84-.16 1.31-.31 1.32-.27z"/><path class="cls-2" d="M143 35.05s-.1 0-.26-.17a3.7 3.7 0 01-.61-.63 5.81 5.81 0 01-1.13-3 11.78 11.78 0 01.54-4.73 39.51 39.51 0 001.54-5.52 8 8 0 00-1-5.38 7.76 7.76 0 00-3.32-3.07 8.56 8.56 0 00-3-.83c-.74-.07-1.15 0-1.16-.08a3.16 3.16 0 011.17-.13 8.06 8.06 0 016.71 3.86 8.41 8.41 0 011.15 5.7 37.36 37.36 0 01-1.63 5.58 11.93 11.93 0 00-.63 4.56 6 6 0 00.93 2.92c.44.61.76.87.7.92z"/><path class="cls-4" d="M100.54 23c-5-11.53 1.85-18.56 6.3-21.08C109.5.4 112.65.09 115.7 0a32.14 32.14 0 019 .82 16.13 16.13 0 017.76 4.37c3.64 3.91 4.48 9.69 4.14 15a41.93 41.93 0 01-5.32 17.94 4.46 4.46 0 01-1.6 1.87 1.65 1.65 0 01-2.16-.39"/><path class="cls-1" d="M127.44 9.52a3.25 3.25 0 012.91 3.3l-1.84 44C128.44 62 119 68.13 113.46 68c-5.62-.12-4.43-6.1-4-11a73.1 73.1 0 00-.13-11.31s-7.1-1.18-8.57-10.43c-.73-4.61-.5-12.15-.11-18.33a9.78 9.78 0 0110.78-9.11z"/><path class="cls-4" d="M103 22.93a1.2 1.2 0 001.15 1.2 1.14 1.14 0 001.22-1.08 1.18 1.18 0 00-1.14-1.19 1.14 1.14 0 00-1.23 1.07zM102.24 20.86c.14.16 1-.51 2.32-.51s2.21.65 2.35.49-.08-.35-.49-.65a3.3 3.3 0 00-1.88-.58 3.14 3.14 0 00-1.85.6c-.39.3-.53.58-.45.65zM115.49 22.93a1.2 1.2 0 001.15 1.2 1.14 1.14 0 001.22-1.08 1.18 1.18 0 00-1.14-1.19 1.14 1.14 0 00-1.23 1.07zM114.79 21.1c.15.15 1-.51 2.33-.51s2.21.65 2.35.49-.08-.35-.49-.65a3.33 3.33 0 00-1.88-.58 3.14 3.14 0 00-1.85.6c-.39.3-.53.55-.46.65zM110.16 30.57a8.62 8.62 0 00-2.08-.37c-.32 0-.63-.1-.69-.32a1.71 1.71 0 01.22-1l1-2.48a41.43 41.43 0 002.16-6.5 43.56 43.56 0 00-2.68 6.31l-.93 2.5A2 2 0 00107 30a.81.81 0 00.54.47 2 2 0 00.55.08 7.86 7.86 0 002.07.02z"/><path d="M109.28 45.69a23.58 23.58 0 0012.39-3.3s-3 6.35-12.27 5.49z" fill="#7c4242"/><path d="M110.7 33.65a2.3 2.3 0 012.06-.85 2.08 2.08 0 011.45.78 1.32 1.32 0 01.1 1.52 1.53 1.53 0 01-1.67.42 4.77 4.77 0 01-1.63-1 1.48 1.48 0 01-.37-.38.44.44 0 010-.47" fill="#bf654e"/><path class="cls-4" d="M113.92 31.46c-.21 0-.21 1.37-1.4 2.36s-2.66.83-2.67 1 .33.27 1 .29a3.46 3.46 0 002.23-.78 2.94 2.94 0 001.08-2c.01-.54-.16-.88-.24-.87zM114.22 18.86c.13.35 1.4.19 2.9.37s2.71.59 2.91.27c.09-.14-.12-.47-.61-.81a5.14 5.14 0 00-4.42-.49c-.56.23-.83.5-.78.66zM102.71 17.16c.22.29 1.1 0 2.16 0s1.95.19 2.16-.11 0-.44-.44-.71a3 3 0 00-1.76-.48 3 3 0 00-1.73.59c-.37.27-.49.55-.39.71z"/><path class="cls-4" d="M100.6 16.93c1.62-7.89 3.82-4.77 6.3-8.53 3.6 3.64 11.9 7.85 17 8.67a3.32 3.32 0 011.48.48 3.19 3.19 0 01.84 2.67 35 35 0 00.67 8.18 13.3 13.3 0 004 7.06c3.05-6.44 3.35-13.92 2-20.91-.56-2.86-1.51-5.85-3.78-7.66a12.82 12.82 0 00-5.78-2.2c-5.06-.93-10.41-1.15-15.23.65s-8.55 4-9.2 9.14"/><path class="cls-2" d="M135.58 11.39a5.23 5.23 0 01-1 .57 10.2 10.2 0 01-1.29.51l-.82.29-.94.23a22.78 22.78 0 01-4.73.65 29.85 29.85 0 01-5.84-.38 29.8 29.8 0 01-5.65-1.54 24 24 0 01-2.31-1.06l-1-.55-1-.58a12.12 12.12 0 01-1.48-1.09L109 8l-.44-.45a5.29 5.29 0 01-.79-.88 42.73 42.73 0 003.5 2.59l.89.54 1 .51c.69.38 1.49.66 2.31 1a32.13 32.13 0 005.53 1.44 32.19 32.19 0 005.73.41 25.3 25.3 0 004.67-.53 39.16 39.16 0 004.18-1.24z"/><path class="cls-2" d="M133 5.15a3.9 3.9 0 01-.8.66 6.45 6.45 0 01-1 .63l-.66.37-.78.33a24.15 24.15 0 01-9.1 1.62 40.78 40.78 0 01-9.18-1c-1.16-.26-2.08-.52-2.71-.73a3.56 3.56 0 01-1-.38c0-.08 1.43.31 3.74.75a48.81 48.81 0 009.11.86 26.27 26.27 0 009-1.44A34.84 34.84 0 00133 5.15zM104.51 3.15c0-.07.32-.13.82 0A3.29 3.29 0 01107 4.23a3.23 3.23 0 01.75 1.82c0 .51-.09.81-.15.8a6.58 6.58 0 00-1-2.29 6.19 6.19 0 00-2.09-1.41z"/><path class="cls-4" d="M152.34 13.12s.06-.15.27-.34a2.13 2.13 0 011.15-.5 2.92 2.92 0 011.93.44 2.46 2.46 0 011.12 2.34 3.41 3.41 0 01-1.81 2.63 3.53 3.53 0 01-3.6-.38 4 4 0 01-1.32-1.53 5.31 5.31 0 01-.49-2 38.69 38.69 0 00-.11-4.18 7.77 7.77 0 00-4.95-5.71 7.12 7.12 0 00-6.19.76 8.06 8.06 0 00-2.94 3.22c-.45.94-.55 1.53-.6 1.51s0-.14 0-.42a5.74 5.74 0 01.37-1.18 7.85 7.85 0 012.92-3.44 8.06 8.06 0 012.93-1.19 7.08 7.08 0 013.62.28A8.21 8.21 0 01150 9.46a34.28 34.28 0 01.1 4.25 5.07 5.07 0 00.43 1.85 3.65 3.65 0 001.16 1.36 3.08 3.08 0 003.13.39 3 3 0 001.6-2.29 2.15 2.15 0 00-.92-2.06 2.75 2.75 0 00-1.74-.48 2.6 2.6 0 00-1.42.64zM128 17.29a3.47 3.47 0 01-1 .08h-2.63a28.12 28.12 0 01-8.56-1.48 14.75 14.75 0 01-7-5.12 9.83 9.83 0 01-1.24-2.34 2.74 2.74 0 01-.24-.94 18.51 18.51 0 001.78 3.07 15.3 15.3 0 006.88 4.84 31.69 31.69 0 008.4 1.6 31.69 31.69 0 013.61.29zM141.16 39.91s0 .37-.43.87a3.37 3.37 0 01-2.4 1.17 5.19 5.19 0 01-3.71-1.39 3.33 3.33 0 01-1.13-2.15 2.34 2.34 0 011.2-2.33 1.87 1.87 0 012.45.87 1.59 1.59 0 01-.09 1.35 2 2 0 01-.91.87 2.94 2.94 0 01-2.2 0 4.12 4.12 0 01-1.59-1 4.22 4.22 0 01-1.18-2.4 1.81 1.81 0 01.06-1c.05 0 0 .35.14.94a4.23 4.23 0 001.24 2.17 3.62 3.62 0 001.46.88 2.55 2.55 0 001.86-.06 1.33 1.33 0 00.74-1.59 1.38 1.38 0 00-1.76-.6 1.88 1.88 0 00-.92 1.82 2.91 2.91 0 001 1.84 4.93 4.93 0 003.36 1.37 3.31 3.31 0 002.27-.93c.38-.39.5-.73.54-.7z"/><path class="cls-2" d="M98.6 88.29c0 .07-.09.2-.06.42s.18.43.45.31.25-.36.1-.54-.32-.18-.34-.25.21-.24.56 0a.72.72 0 01.37.58.77.77 0 11-1.51-.11c.11-.43.41-.47.43-.41zM114.6 88c0 .07-.22.14-.35.41a.48.48 0 10.87.09c-.07-.29-.27-.4-.25-.47s.35-.09.59.34a.87.87 0 01-.91 1.27.91.91 0 01-.8-.65.94.94 0 01.2-.79c.32-.38.67-.29.65-.2zM99.62 96.88v1.47a14.14 14.14 0 00.65 3.92 7 7 0 001.35 2.31 4.56 4.56 0 002.66 1.37 4.94 4.94 0 003.27-.46 6.25 6.25 0 002.47-2.59 15.89 15.89 0 001.71-6l.24.26c-3.57 0-6.63-.07-8.83-.11l-2.59-.07a6.87 6.87 0 01-1-.06 3.24 3.24 0 01.87-.07l2.54-.07c2.18 0 5.31-.09 9-.11h.27v.26a16 16 0 01-1.74 6.26 6.75 6.75 0 01-2.7 2.8 5.38 5.38 0 01-3.58.47 5.07 5.07 0 01-2.9-1.54 7.3 7.3 0 01-1.38-2.49 13.07 13.07 0 01-.51-4 5 5 0 01.2-1.55zM138.56 147.24s-.25.18-.77.38a8 8 0 01-2.3.47 9 9 0 01-9.63-9.88 8.11 8.11 0 01.52-2.29 2.44 2.44 0 01.41-.76 15.93 15.93 0 00-.56 3.07 8.9 8.9 0 009.25 9.49 15.67 15.67 0 003.08-.48zM44.23 168.53c0-.15 21.69-.27 48.44-.27s48.45.12 48.45.27-21.68.26-48.45.26-48.44-.12-48.44-.26z"/></g></g></svg>