<svg xmlns="http://www.w3.org/2000/svg" viewBox="0 0 556 465.46"><defs><style>.cls-1{fill:#2dce89;}.cls-2{fill:#e1e1e1;}.cls-3{fill:#1a2528;}.cls-4,.cls-8{fill:#fff;}.cls-5{fill:#ececec;}.cls-6{fill:#f5f5f5;}.cls-7{fill:#5e72e4;}.cls-8{font-size:11.42px;font-family:Gilroy-Medium;font-weight:500;}.cls-9{letter-spacing:0.01em;}.cls-10{letter-spacing:-0.02em;}.cls-11{letter-spacing:-0.03em;}.cls-12{letter-spacing:-0.01em;}.cls-13{letter-spacing:0em;}.cls-14{fill:#903c38;}.cls-15{fill:#1a2e35;}.cls-16{fill:#fb6340;}.cls-17{opacity:0.2;}.cls-18{fill:#007cff;}.cls-19{fill:#fafafa;opacity:0.7;}.cls-20{fill:#740606;}</style></defs><title>characterAsset 1</title><g id="Layer_2" data-name="Layer 2"><g id="flower_1" data-name="flower 1"><path class="cls-1" d="M164.74,387.94c13.82-17.21,11.18-40.88,4.57-60.92-1.1-3.34-1.77-7-4.24-9.51s-6.82-3.42-9.43-1.11c-2.16,1.91-2.4,5.15-3.1,8a20.6,20.6,0,0,1-5.71,9.89c-1.83,1.74-4.29,3.21-6.76,2.65-3.38-.75-4.9-4.68-5.86-8q-2.69-9.42-5.38-18.83c-1-3.36-2-6.8-3.93-9.68s-5.15-5.17-8.61-5.13-6.87,3-6.59,6.52a33.15,33.15,0,0,0,1.13,4.21c.32,1.42.12,3.16-1.09,3.93s-2.85.23-4.15-.46c-4.46-2.38-8.09-6.06-11.56-9.77s-6.9-7.53-11.13-10.31-9.44-4.44-14.33-3.3-9.16,5.6-9,10.68,4.33,9.09,8.46,12A78.55,78.55,0,0,0,88,319.1a6.36,6.36,0,0,1,3.43,2c1.39,2-.08,4.87-2.08,6.25-2.26,1.57-5,2.1-7.58,3.18s-5,3.06-5.3,5.82c-.37,3.84,3.55,6.6,7.07,8.13A66.87,66.87,0,0,0,105.77,350c2.74.18,5.57.22,8.07,1.37s4.59,3.82,4.08,6.54-3.38,4.39-6.11,4.66-5.46-.45-8.2-.66c-5.13-.39-11,1.67-12.79,6.52-1.18,3.2-.28,6.9,1.62,9.74a25.45,25.45,0,0,0,7.52,6.82,67.29,67.29,0,0,0,33.26,11.32c11.79.58,22-1.31,31.52-8.32"/><path class="cls-2" d="M63.09,290.7a1.89,1.89,0,0,0,.42.23l1.25.59c1.11.52,2.74,1.29,4.82,2.34A131.93,131.93,0,0,1,86.47,304c3.41,2.39,7,5.15,10.88,8.19s7.92,6.34,12.08,10A158.94,158.94,0,0,1,121.92,334c2,2.19,4,4.54,6,6.93s4,4.83,6,7.3a319.57,319.57,0,0,1,21.43,28.83A156.85,156.85,0,0,1,169,403a115.49,115.49,0,0,1,5.87,18.89c.47,2.29.81,4.07,1,5.29l.24,1.38a3.75,3.75,0,0,0,.1.47,2.9,2.9,0,0,0,0-.48c0-.34-.1-.8-.18-1.39-.14-1.22-.44-3-.88-5.32a109.25,109.25,0,0,0-5.69-19,153.43,153.43,0,0,0-13.58-26.09,314.31,314.31,0,0,0-21.43-28.93l-6-7.29c-2-2.39-3.93-4.76-6-7a156.11,156.11,0,0,0-12.56-12c-4.18-3.62-8.28-6.89-12.13-9.92s-7.52-5.78-11-8.15a125,125,0,0,0-17-9.95c-2.1-1-3.75-1.74-4.87-2.23l-1.29-.53Z"/><path class="cls-2" d="M122.19,333.63a7.33,7.33,0,0,0-.09-1.53c-.09-1-.28-2.39-.53-4.13-.51-3.49-1.36-8.28-2.33-13.55s-1.76-10.07-2.2-13.55c-.23-1.74-.41-3.15-.51-4.13a6.93,6.93,0,0,0-.24-1.51,6.93,6.93,0,0,0,0,1.53c0,1,.13,2.4.3,4.16.34,3.51,1.06,8.32,2,13.61s1.84,9.91,2.51,13.51c.29,1.62.53,3,.73,4.1A7.59,7.59,0,0,0,122.19,333.63Z"/><path class="cls-2" d="M76.63,338.19a10.66,10.66,0,0,0,1.78-.3c1.14-.23,2.78-.56,4.82-.91,4.09-.73,9.76-1.54,16.06-2.16s12-.92,16.18-1c2.07-.07,3.75-.08,4.91-.09a9.18,9.18,0,0,0,1.81-.08,10.61,10.61,0,0,0-1.8-.17c-1.17-.07-2.85-.13-4.93-.12-4.16,0-9.92.22-16.24.83a157.5,157.5,0,0,0-16.07,2.36c-2,.41-3.68.81-4.8,1.11A8.7,8.7,0,0,0,76.63,338.19Z"/><path class="cls-2" d="M155,376.14a1.81,1.81,0,0,0,.15-.61c.07-.48.17-1.07.28-1.78.24-1.55.52-3.79.84-6.57.64-5.56,1.28-13.27,1.87-21.78s1.16-16.22,1.68-21.78c.26-2.71.47-4.94.63-6.59.07-.72.12-1.31.16-1.8a2.74,2.74,0,0,0,0-.63,2.49,2.49,0,0,0-.14.62c-.08.48-.17,1.06-.29,1.77-.23,1.55-.52,3.8-.84,6.57-.64,5.56-1.27,13.27-1.86,21.79s-1.16,16.21-1.68,21.78c-.27,2.7-.48,4.93-.64,6.58-.06.72-.12,1.31-.16,1.8A2.74,2.74,0,0,0,155,376.14Z"/><path class="cls-2" d="M92.22,374.42a3,3,0,0,0,.64.07l1.83.07,6.73.19c5.69.17,13.53.49,22.2.85s16.53.62,22.22.67c2.84,0,5.15,0,6.74,0l1.83-.05a2.44,2.44,0,0,0,.63-.06,2.28,2.28,0,0,0-.63-.07l-1.83-.07-6.73-.2c-5.69-.16-13.53-.48-22.21-.85s-16.52-.61-22.21-.66c-2.84,0-5.15,0-6.74,0l-1.83.05A2.15,2.15,0,0,0,92.22,374.42Z"/></g><g id="flower_2" data-name="flower 2"><g id="leaf_1" data-name="leaf 1"><path class="cls-1" d="M379,413c-24-16.76-29.43-47.86-28.48-75.82.16-4.67-.35-9.59,1.86-13.68s7.41-6.9,11.58-4.93c3.47,1.63,5,5.66,6.92,9A27.25,27.25,0,0,0,381.84,338c3,1.54,6.64,2.49,9.58.87,4-2.22,4.5-7.78,4.47-12.43q-.08-13-.16-26c0-4.64,0-9.38,1.4-13.79s4.63-8.49,9.05-9.73,9.87,1.31,10.81,5.85c.39,1.89,0,3.86.13,5.78s1,4.06,2.86,4.6,3.71-.77,5.09-2.13c4.79-4.69,8.05-10.73,11.08-16.73s6-12.15,10.34-17.26,10.36-9.17,17-9.54,13.73,3.72,15.41,10.25-2.14,13.18-6.29,18.48a103.57,103.57,0,0,1-21.57,20.56c-1.47,1-3.05,2.16-3.61,3.88-1,3.1,1.92,6.17,5,7.19,3.46,1.15,7.21.79,10.83,1.22s7.54,2,8.91,5.44c1.9,4.75-2.07,9.72-6,13a88.92,88.92,0,0,1-26.27,15.16c-3.41,1.25-7,2.35-9.76,4.74s-4.42,6.58-2.75,9.84,5.93,4.32,9.51,3.66,6.78-2.6,10.18-3.89c6.38-2.41,14.62-2,18.71,3.54,2.68,3.63,2.92,8.67,1.56,13s-4.11,8-7,11.48c-10.22,12-23.31,21.65-38.11,26.78S393.71,418.39,379,413"/><path class="cls-2" d="M378.64,433.74a203,203,0,0,1,7.59-38.26c4.11-14.11,9.9-29.2,16.51-44.78q2.49-5.83,4.93-11.51c1.62-3.78,3.24-7.52,5-11.09a206.74,206.74,0,0,1,11.54-19.89c4-6.15,8-11.84,11.76-17.13s7.41-10.15,10.9-14.44a165,165,0,0,1,18-19c2.29-2.07,4.12-3.62,5.37-4.65l1.43-1.16a4,4,0,0,1,.51-.38,3.25,3.25,0,0,1-.45.44l-1.38,1.23c-1.21,1.08-3,2.66-5.26,4.77A174,174,0,0,0,447.38,277c-3.45,4.31-7,9.18-10.8,14.47s-7.72,11-11.67,17.15a211.74,211.74,0,0,0-11.45,19.84c-1.79,3.55-3.39,7.26-5,11s-3.26,7.63-4.92,11.51c-6.6,15.57-12.4,30.61-16.54,44.67a207.66,207.66,0,0,0-7.74,38.09"/><path class="cls-2" d="M413,328.07a9.14,9.14,0,0,1-.46-2c-.24-1.29-.53-3.15-.86-5.46-.66-4.63-1.34-11-2.08-18.11s-1.51-13.47-2.23-18.06c-.36-2.3-.66-4.16-.89-5.45a9.22,9.22,0,0,1-.26-2,9.23,9.23,0,0,1,.58,1.94c.33,1.27.73,3.12,1.16,5.41.88,4.59,1.76,11,2.49,18.08s1.34,13.29,1.83,18.12c.23,2.18.43,4,.59,5.49A10,10,0,0,1,413,328.07Z"/><path class="cls-2" d="M472.63,316.91a12.47,12.47,0,0,1-2.38.29c-1.53.14-3.74.32-6.48.64-5.46.59-13,1.67-21.23,3.22s-15.65,3.31-21,4.72c-2.66.69-4.8,1.3-6.29,1.72a13.83,13.83,0,0,1-2.32.57,12.56,12.56,0,0,1,2.23-.9c1.45-.51,3.57-1.21,6.22-2,5.3-1.57,12.7-3.4,21-5a208.26,208.26,0,0,1,21.34-3c2.74-.24,5-.33,6.52-.37A13.06,13.06,0,0,1,472.63,316.91Z"/><path class="cls-2" d="M387,394.39a2.92,2.92,0,0,1-.41-.73l-1-2.16c-.88-1.88-2.08-4.63-3.52-8.05-2.23-5-4.77-11.4-10.47-27-3.92-10.62-7.51-20.21-10.24-27.1L358,321.19l-.88-2.23a2.85,2.85,0,0,1-.25-.8,2.92,2.92,0,0,1,.41.73l1,2.16c.88,1.88,2.08,4.63,3.52,8.05,2.88,6.84,6.56,16.41,10.48,27s7.5,20.21,10.23,27.1l3.26,8.14.88,2.23A2.85,2.85,0,0,1,387,394.39Z"/><path class="cls-2" d="M466.26,368.83a3.4,3.4,0,0,1-.78.32l-2.31.77-8.49,2.75c-7.17,2.33-17,5.66-27.93,9.34s-20.81,6.93-28,9.11c-3.61,1.09-6.54,1.94-8.58,2.49l-2.35.62a3.88,3.88,0,0,1-.83.16,3.09,3.09,0,0,1,.79-.33l2.3-.77,8.49-2.75c7.17-2.33,17-5.65,27.94-9.34s20.8-6.93,28-9.11c3.61-1.09,6.54-1.94,8.58-2.49l2.35-.62A2.87,2.87,0,0,1,466.26,368.83Z"/></g></g><g id="Mobile"><g id="Device"><path class="cls-3" d="M349.55.68,202.44,0a32.05,32.05,0,0,0-32.2,31.91l-1.56,368.81a32.05,32.05,0,0,0,31.9,32.18l147.11.68a32,32,0,0,0,32.19-31.91l1.56-368.81A32,32,0,0,0,349.55.68Zm20.6,395.25a22.43,22.43,0,0,1-22.54,22.35l-146.82-.68a22.45,22.45,0,0,1-22.34-22.54l1.52-360a22.45,22.45,0,0,1,22.55-22.35l25,.12,10,0a7.09,7.09,0,0,1,6.89,7.27l0,5.18a7.09,7.09,0,0,0,6.89,7.27l55.6.26a7.09,7.09,0,0,0,7-7.21l0-5.17a7.09,7.09,0,0,1,7-7.21l28.52.13A22.44,22.44,0,0,1,371.68,36Z"/><path class="cls-4" d="M349.34,13.27l-28.53-.13a7.08,7.08,0,0,0-6.95,7.2l0,5.18a7.1,7.1,0,0,1-7,7.21l-55.6-.26a7.09,7.09,0,0,1-6.89-7.27l0-5.18a7.09,7.09,0,0,0-6.9-7.27l-10-.05-25-.11A22.45,22.45,0,0,0,180,34.94l-1.52,360a22.45,22.45,0,0,0,22.34,22.54l146.82.68a22.45,22.45,0,0,0,22.54-22.35l1.53-360A22.44,22.44,0,0,0,349.34,13.27Z"/></g></g><g id="grey_message_bubble" data-name="grey message bubble"><g id="message"><path class="cls-5" d="M311.51,141v26.12a10.72,10.72,0,0,1-10.73,10.73H255.57v14.94l-8.11-14.28h0a9.55,9.55,0,0,1-8.84-9.52V141a10.72,10.72,0,0,1,10.73-10.73h51.43A10.72,10.72,0,0,1,311.51,141Z"/><circle class="cls-2" cx="291.29" cy="155.5" r="4.42"/><circle class="cls-2" cx="274.51" cy="155.5" r="4.42"/><path class="cls-2" d="M253.31,155.5a4.42,4.42,0,1,0,4.42-4.42A4.42,4.42,0,0,0,253.31,155.5Z"/></g></g><g id="shadow"><ellipse id="_Path_" data-name="&lt;Path&gt;" class="cls-6" cx="269" cy="454.14" rx="269" ry="11.32"/></g><g id="send_msg_btn" data-name="send msg btn"><rect class="cls-7" x="203.74" y="318.02" width="142.74" height="34.26" rx="3.28"/><text class="cls-8" transform="translate(249.09 338.59)"><tspan class="cls-9">S</tspan><tspan x="6.74" y="0">end M</tspan><tspan class="cls-10" x="39.11" y="0">e</tspan><tspan class="cls-11" x="45.54" y="0">s</tspan><tspan class="cls-12" x="50.42" y="0">s</tspan><tspan class="cls-13" x="55.49" y="0">age</tspan></text><path id="_Icon_Сolor" data-name=" Icon Сolor" class="cls-4" d="M237.89,341.43h-11a2.36,2.36,0,0,1-2.35-2.36v-7.85a2.35,2.35,0,0,1,2.35-2.35h11a2.35,2.35,0,0,1,2.35,2.35v7.85A2.36,2.36,0,0,1,237.89,341.43Zm-11.78-10v7.65a.78.78,0,0,0,.78.79h11a.78.78,0,0,0,.78-.79v-7.65l-5.81,4.36a.78.78,0,0,1-.94,0Zm1.31-1,5,3.73,5-3.73Z"/></g><g id="Message_Blue_Bubble" data-name="Message Blue Bubble"><path class="cls-7" d="M32.39,95.27H145a2.86,2.86,0,0,1,2.86,2.87V121c.75,9.69,0,12.09-11.05,12.88v10.3L126.68,134H32.39a2.86,2.86,0,0,1-2.86-2.87v-33A2.86,2.86,0,0,1,32.39,95.27Z"/><rect class="cls-4" x="66.74" y="107.39" width="59.54" height="2.55"/><rect class="cls-4" x="66.74" y="112.74" width="59.54" height="2.55"/><rect class="cls-4" x="66.74" y="118.51" width="30.17" height="2.55"/><rect class="cls-4" x="44.85" y="106.25" width="16.63" height="16.63"/></g><g id="Character"><polygon class="cls-14" points="457.07 424.6 447.64 421.68 451.15 396.4 460.58 399.32 457.07 424.6"/><polygon class="cls-14" points="526.66 431.63 516.88 431.63 514.45 406.22 524.23 406.22 526.66 431.63"/><path class="cls-15" d="M516.08,430.36H528a.87.87,0,0,1,.83.75l1.94,9.76a1.57,1.57,0,0,1-1.44,1.95c-3.83-.07-6.63-.33-11.47-.33-3,0-11.93.35-16,.35s-4.64-4.55-3-5c7.54-1.85,13.22-4.4,15.63-6.83A2.22,2.22,0,0,1,516.08,430.36Z"/><path class="cls-15" d="M448,420.48l10.3,3.18a1,1,0,0,1,.62,1l-.44,10a1.46,1.46,0,0,1-1.82,1.46c-3.7-1.22-9-3.13-13.68-4.57-5.46-1.69-10.25-2.81-16.66-4.79-3.87-1.2-3.86-5.92-2.14-5.82,7.82.47,13.89,2.14,21.35-.3A4.1,4.1,0,0,1,448,420.48Z"/><path class="cls-14" d="M486.52,98.74c-3.61,7.05-7.4,13.74-11.42,20.42s-8.3,13.16-13,19.51c-1.23,1.57-2.4,3.14-3.72,4.69l-1,1.17-.52.62a12.41,12.41,0,0,1-1.32,1.3,11.71,11.71,0,0,1-5.07,2.41,19.76,19.76,0,0,1-7.3-.09,36.65,36.65,0,0,1-5.86-1.55,85.74,85.74,0,0,1-20.09-10.44l3-7.5A162.1,162.1,0,0,0,440,134.42a38.28,38.28,0,0,0,4.52.48,8.31,8.31,0,0,0,3.21-.37c.25-.09.17-.22-.27.09a2.29,2.29,0,0,0-.35.31l.36-.49.76-1.06c1-1.38,2-2.93,3-4.39,4-6.06,7.8-12.49,11.52-19s7.43-13.15,11-19.67Z"/><path class="cls-16" d="M490.13,90.68c3.59,9.7-15.17,37.91-15.17,37.91l-19-13s5.69-13.87,11.94-25.5C472.19,82.09,486.09,79.74,490.13,90.68Z"/><path class="cls-17" d="M477.64,93l8.06,16.65a172.85,172.85,0,0,1-10.73,19l-10.19-7C466.86,113.64,471.45,98.58,477.64,93Z"/><path class="cls-14" d="M418.94,128.8l-8-3,4.22,13.83a9.74,9.74,0,0,0,8.06-3.26l-.49-3.61A4.4,4.4,0,0,0,418.94,128.8Z"/><polygon class="cls-14" points="406.16 128.59 404 136.64 415.18 139.63 410.96 125.8 406.16 128.59"/><polygon class="cls-17" points="451.15 396.41 449.34 409.44 458.77 412.36 460.59 399.33 451.15 396.41"/><polygon class="cls-17" points="524.23 406.23 514.44 406.23 515.7 419.33 525.49 419.33 524.23 406.23"/><path class="cls-16" d="M530,87.68a273.25,273.25,0,0,0-6.21,36.1c-.93,8.51-1.49,16.62-1.83,24-.81,17.25-.47,30.4-.93,34.86l-52.19-4.08c-6.38-56,3.9-87.68,6.07-93.59a1.88,1.88,0,0,1,1.35-1.21,93,93,0,0,1,11.54-1.53c.88-.07,1.78-.1,2.69-.12,5.92-.14,15.55.85,22.19,1.73,1.4.19,2.81.42,4.18.66A127.22,127.22,0,0,1,530,87.68Z"/><path class="cls-17" d="M516.82,103.48a50.44,50.44,0,0,0,6.46,25.37c.15-1.67.32-3.36.51-5.06.69-6.39,1.59-13,2.78-19.69Z"/><path class="cls-14" d="M512.22,55.63c-1.89,7.9-4.2,22.47.46,28.2a20.77,20.77,0,0,1-17.58,6.3c-6.13-.63-6.14-5.47-4.61-8,8.1-1.5,8.3-8.15,7.3-14.48Z"/><path class="cls-17" d="M506.34,60.52,497.8,67.6a28.7,28.7,0,0,1,.41,4.48c3.07-.26,7.48-3.68,8-7.22A13.43,13.43,0,0,0,506.34,60.52Z"/><path class="cls-14" d="M513.82,43.64c-1.26,10.8-1.52,17.19-6.75,22.38-7.86,7.8-19.48,1.9-21.11-9.11-1.47-9.91.85-25.9,10.58-29.48C506.12,23.91,515.09,32.84,513.82,43.64Z"/><path class="cls-15" d="M511.91,53.15c-3.82-3.42-5.39-26.16,4-25.18C523.86,28.8,532.63,40.52,511.91,53.15Z"/><path class="cls-15" d="M513.61,34.07c-12.09,3.65-37.8-5.92-30.82-14.11C492.12,9,509.05,25.7,513.61,34.07Z"/><path class="cls-15" d="M518.77,36.93C509,35.33,488.71,14.09,499.24,13,512.51,11.57,517.79,29.26,518.77,36.93Z"/><path class="cls-15" d="M517,30.57h-.1a.7.7,0,0,1-.52-.8,28.62,28.62,0,0,0-.76-10,.7.7,0,0,1,.42-.86.61.61,0,0,1,.77.48,29.77,29.77,0,0,1,.8,10.57A.65.65,0,0,1,517,30.57Z"/><path class="cls-14" d="M517.45,55.94a9.15,9.15,0,0,1-6,4.11c-3.21.53-4.4-2.79-3.17-5.94,1.1-2.84,4.1-6.53,7.15-5.62S519.19,53.21,517.45,55.94Z"/><path class="cls-18" d="M446.41,405.91l16,4.92S473.79,342.07,476.66,308c.87-10.36,3.31-24.78,6.38-40.22,3.87-19.45,8.73-40.48,12.71-57,4.2-17.34,7.39-29.62,7.39-29.62l-34.3-2.68S448,269.56,447,303C446,337.85,446.41,405.91,446.41,405.91Z"/><path class="cls-19" d="M446.41,405.91l16,4.92S473.79,342.07,476.66,308c.87-10.36,3.31-24.78,6.38-40.22,3.87-19.45,8.73-40.48,12.71-57,4.2-17.34,7.39-29.62,7.39-29.62l-34.3-2.68S448,269.56,447,303C446,337.85,446.41,405.91,446.41,405.91Z"/><path class="cls-17" d="M483,267.8c3.87-19.45,8.73-40.48,12.71-57l-3.56-8.6C483.68,213.6,481.39,248.72,483,267.8Z"/><path class="cls-18" d="M487.35,180s3.7,94,7.83,125.78c4.52,34.85,16,111,16,111H529.1s-5.11-72.56-8.55-106.68c-3.92-38.86.47-127.48.47-127.48Z"/><path class="cls-19" d="M487.35,180s3.7,94,7.83,125.78c4.52,34.85,16,111,16,111H529.1s-5.11-72.56-8.55-106.68c-3.92-38.86.47-127.48.47-127.48Z"/><polygon class="cls-7" points="509.04 417.22 530.13 417.22 530.13 410.15 506.55 409.69 509.04 417.22"/><polygon class="cls-7" points="444.3 405.7 463.33 411.59 465.02 404.69 443.84 397.75 444.3 405.7"/><path class="cls-15" d="M499,45.53c-.05.88-.51,1.56-1,1.52s-.88-.79-.83-1.67.52-1.57,1-1.53S499,44.64,499,45.53Z"/><path class="cls-15" d="M490.08,44.83c-.06.88-.52,1.57-1,1.52s-.89-.78-.83-1.67.51-1.56,1-1.52S490.13,44,490.08,44.83Z"/><path class="cls-20" d="M492.88,45.49s-2.11,4.95-4.23,7.26c1.3,1.57,3.71,1.08,3.71,1.08Z"/><path class="cls-15" d="M501.94,42.51a.43.43,0,0,1-.44-.23,3.6,3.6,0,0,0-2.85-2,.49.49,0,0,1-.47-.52.49.49,0,0,1,.47-.52,4.46,4.46,0,0,1,3.63,2.43.58.58,0,0,1-.14.72A.32.32,0,0,1,501.94,42.51Z"/><path class="cls-15" d="M495.8,58.15h0a7.06,7.06,0,0,0,5.76-3.52.3.3,0,0,0-.08-.38.25.25,0,0,0-.35.1,6.69,6.69,0,0,1-5.35,3.24.26.26,0,0,0-.24.29A.27.27,0,0,0,495.8,58.15Z"/><path class="cls-15" d="M486.48,41.09a.48.48,0,0,1-.28-.06.56.56,0,0,1-.17-.71,4.51,4.51,0,0,1,3.5-2.66.48.48,0,0,1,.49.49.52.52,0,0,1-.44.55h0a3.62,3.62,0,0,0-2.75,2.14A.44.44,0,0,1,486.48,41.09Z"/><path class="cls-18" d="M512.84,432.28a2.71,2.71,0,0,1-1.88-.56,1.67,1.67,0,0,1-.48-1.37.83.83,0,0,1,.4-.74c1.08-.62,4.23,1.55,4.59,1.8a.3.3,0,0,1,.11.27.28.28,0,0,1-.18.21A10.52,10.52,0,0,1,512.84,432.28ZM511.39,430a.67.67,0,0,0-.3.06.34.34,0,0,0-.15.31,1.12,1.12,0,0,0,.32.94c.53.51,1.81.58,3.47.2A8.71,8.71,0,0,0,511.39,430Z"/><path class="cls-18" d="M515.35,431.89a.2.2,0,0,1-.11,0c-1-.61-3-3-2.77-4.24a.8.8,0,0,1,.74-.68,1.18,1.18,0,0,1,1,.33c1.13,1,1.37,4.21,1.38,4.34a.29.29,0,0,1-.11.24A.19.19,0,0,1,515.35,431.89Zm-2-4.45h-.1c-.3,0-.33.2-.34.26-.12.73,1.12,2.54,2.13,3.4-.11-.92-.43-2.77-1.16-3.44A.77.77,0,0,0,513.37,427.44Z"/><path class="cls-18" d="M446.73,421.65s0,0,0,0c-1.6-.13-4.41-.55-5.19-1.89a1.66,1.66,0,0,1-.12-1.35.79.79,0,0,1,.54-.55c1.31-.35,4.58,3,4.94,3.34a.28.28,0,0,1,.06.3A.23.23,0,0,1,446.73,421.65Zm-4.64-3.3H442a.29.29,0,0,0-.21.23,1,1,0,0,0,.07.88c.44.76,2,1.34,4.14,1.6C444.72,419.79,442.85,418.26,442.09,418.35Z"/><path class="cls-18" d="M446.73,421.65a.19.19,0,0,1-.17-.06c-1-.92-2.69-3.91-2.22-5,.11-.27.37-.56,1-.44a1.67,1.67,0,0,1,1.13.81c.93,1.48.48,4.41.47,4.53a.29.29,0,0,1-.15.2ZM445,416.59a.26.26,0,0,0-.23.17c-.28.68.81,3,1.78,4.1a6.82,6.82,0,0,0-.45-3.65,1.22,1.22,0,0,0-.83-.6A1.42,1.42,0,0,0,445,416.59Z"/><path class="cls-14" d="M531.47,93.61c4.61,6.48,8.73,13,12.68,19.89a181.79,181.79,0,0,1,10.71,21.71,15.54,15.54,0,0,1,1.14,6.16,20.86,20.86,0,0,1-.63,4.68,35.49,35.49,0,0,1-2.59,6.94,72.57,72.57,0,0,1-6.59,10.71,129.53,129.53,0,0,1-15.5,17.48l-5.27-5.73c2-3.09,4.12-6.26,6.06-9.45s3.89-6.36,5.64-9.58a76.46,76.46,0,0,0,4.51-9.55,21,21,0,0,0,1.15-4.18,5.29,5.29,0,0,0,0-1.21c0-.22-.11,0,0,.39-1.6-3.22-3.38-6.45-5.2-9.66s-3.77-6.39-5.73-9.56c-3.93-6.3-8-12.68-12.11-18.76Z"/><path class="cls-16" d="M529.7,87.63c8.94,3.06,17.84,27.22,17.84,27.22l-15.89,18.37s-9.48-13.85-15-25.93C510.72,94.12,518.87,83.91,529.7,87.63Z"/><path class="cls-14" d="M528.84,174l-9.93-.34,4.87,12.92s8.51-1.82,8.15-7Z"/><polygon class="cls-14" points="512.3 179.04 516.77 189.5 523.78 186.56 518.91 173.65 512.3 179.04"/></g></g></svg>